<?xml version="1.0" encoding="utf-8"?>
<!-- Svg Vector Icons : http://www.onlinewebfonts.com/icon -->
<!DOCTYPE svg PUBLIC "-//W3C//DTD SVG 1.1//EN" "http://www.w3.org/Graphics/SVG/1.1/DTD/svg11.dtd">
<svg version="1.1" xmlns="http://www.w3.org/2000/svg" xmlns:xlink="http://www.w3.org/1999/xlink" x="0px" y="0px" viewBox="0 0 1000 1000" enable-background="new 0 0 1000 1000" xml:space="preserve">
<metadata> Svg Vector Icons : http://www.onlinewebfonts.com/icon </metadata>
<g><path d="M935.6,527.2H581.7c-30.1,0-54.4,24.4-54.4,54.4v353.9c0,30.1,24.4,54.4,54.4,54.4h353.9c30.1,0,54.4-24.4,54.4-54.4V581.7C990,551.6,965.6,527.2,935.6,527.2z M935.6,935.6H581.7V581.7h353.9V935.6z M418.3,527.2H64.4c-30.1,0-54.4,24.4-54.4,54.4v353.9c0,30.1,24.4,54.4,54.4,54.4h353.9c30.1,0,54.4-24.4,54.4-54.4V581.7C472.8,551.6,448.4,527.2,418.3,527.2z M418.3,935.6H64.4V581.7h353.9V935.6z M935.6,10H581.7c-30.1,0-54.4,24.4-54.4,54.4v353.9c0,30.1,24.4,54.4,54.4,54.4h353.9c30.1,0,54.4-24.4,54.4-54.4V64.4C990,34.4,965.6,10,935.6,10z M935.6,418.3H581.7V64.4h353.9V418.3z M418.3,10H64.4C34.4,10,10,34.4,10,64.4v353.9c0,30.1,24.4,54.4,54.4,54.4h353.9c30.1,0,54.4-24.4,54.4-54.4V64.4C472.8,34.4,448.4,10,418.3,10z M418.3,418.3H64.4V64.4h353.9V418.3z"/></g>
</svg>