<?xml version="1.0" encoding="utf-8"?>
<!-- Svg Vector Icons : http://www.onlinewebfonts.com/icon -->
<!DOCTYPE svg PUBLIC "-//W3C//DTD SVG 1.1//EN" "http://www.w3.org/Graphics/SVG/1.1/DTD/svg11.dtd">
<svg version="1.1" xmlns="http://www.w3.org/2000/svg" xmlns:xlink="http://www.w3.org/1999/xlink" x="0px" y="0px" viewBox="0 0 1000 1000" enable-background="new 0 0 1000 1000" xml:space="preserve">
<metadata> Svg Vector Icons : http://www.onlinewebfonts.com/icon </metadata>
<g><path d="M978.3,978.2c-15.7,15.7-41.1,15.7-56.8,0L649.8,706.5c-67.5,55-153.6,88.1-247.5,88.1C185.6,794.6,10,618.9,10,402.3C10,185.7,185.6,10,402.3,10c216.7,0,392.3,175.6,392.3,392.3c0,93.9-33.1,180-88.1,247.5l271.8,271.7C993.9,937.2,993.9,962.5,978.3,978.2z M402.3,88.4c-173.3,0-313.8,140.5-313.8,313.8c0,173.3,140.5,313.8,313.8,313.8c173.3,0,313.8-140.5,313.8-313.8C716.1,229,575.6,88.4,402.3,88.4z"/></g>
</svg>